<svg id="Layer_1_1_" xmlns="http://www.w3.org/2000/svg" width="63.214" height="63.214" viewBox="0 0 63.214 63.214">
  <g id="Group_165" data-name="Group 165" transform="translate(0 0)">
    <path id="Path_184" data-name="Path 184" d="M36.907,17.8A31.607,31.607,0,1,0,68.514,49.407,31.6,31.6,0,0,0,36.907,17.8Zm0,59.042A27.435,27.435,0,1,1,64.342,49.407,27.461,27.461,0,0,1,36.907,76.842Z" transform="translate(-5.3 -17.8)" fill="#fff"/>
    <circle id="Ellipse_4" data-name="Ellipse 4" cx="4.03" cy="4.03" r="4.03" transform="translate(34.93 15.697)" fill="#fff"/>
    <path id="Path_185" data-name="Path 185" d="M53.609,56.946a2.316,2.316,0,0,0-3.748,0l-1.556,2.121a.8.8,0,0,1-1.273,0L40.386,49.8a2.316,2.316,0,0,0-3.748,0L25.325,65.785a2.287,2.287,0,0,0,1.838,3.606h30.9A2.267,2.267,0,0,0,59.9,65.785Z" transform="translate(-11.042 -26.895)" fill="#fff"/>
  </g>
</svg>
