<?xml version="1.0" encoding="utf-8"?>
<!-- Generator: Adobe Illustrator 24.2.0, SVG Export Plug-In . SVG Version: 6.00 Build 0)  -->
<svg version="1.1" id="Layer_1" xmlns="http://www.w3.org/2000/svg" xmlns:xlink="http://www.w3.org/1999/xlink" x="0px" y="0px"
	 viewBox="0 0 100 125" style="enable-background:new 0 0 100 125;" xml:space="preserve">
<style type="text/css">
	.st0{fill:#FFFFFF;}
</style>
<g id="Layer_2_1_">
</g>
<g id="Layer_1_1_">
	<g>
		<path class="st0" d="M50,17.8c-24.7,0-44.7,20-44.7,44.7s20,44.7,44.7,44.7s44.7-20,44.7-44.7S74.7,17.8,50,17.8z M50,101.3
			c-21.4,0-38.8-17.4-38.8-38.8S28.6,23.7,50,23.7s38.8,17.4,38.8,38.8S71.4,101.3,50,101.3z"/>
		<circle class="st0" cx="60.4" cy="45.7" r="5.7"/>
		<path class="st0" d="M65.5,60.3c-1.3-1.8-4-1.8-5.3,0l-2.2,3c-0.4,0.6-1.4,0.6-1.8,0l-9.4-13.1c-1.3-1.8-4-1.8-5.3,0l-16,22.6
			c-1.5,2.1,0,5.1,2.6,5.1h43.7c2.6,0,4.2-3,2.6-5.1L65.5,60.3z"/>
	</g>
</g>
</svg>
