<svg xmlns="http://www.w3.org/2000/svg" width="115" height="115" viewBox="0 0 115 115">
  <g id="Group_174" data-name="Group 174" transform="translate(-693 -1902)">
    <circle id="Ellipse_2" data-name="Ellipse 2" cx="57.5" cy="57.5" r="57.5" transform="translate(693 1902)" fill="#00b5ae"/>
    <path id="Path_184" data-name="Path 184" d="M36.907,17.8A31.607,31.607,0,1,0,68.514,49.407,31.6,31.6,0,0,0,36.907,17.8Zm0,59.042A27.435,27.435,0,1,1,64.342,49.407,27.461,27.461,0,0,1,36.907,76.842Z" transform="translate(713.594 1910.094)" fill="#fff"/>
    <circle id="Ellipse_4" data-name="Ellipse 4" cx="4.03" cy="4.03" r="4.03" transform="translate(753.824 1943.591)" fill="#fff"/>
    <path id="Path_185" data-name="Path 185" d="M53.609,56.946a2.316,2.316,0,0,0-3.748,0l-1.556,2.121a.8.8,0,0,1-1.273,0L40.386,49.8a2.316,2.316,0,0,0-3.748,0L25.325,65.785a2.287,2.287,0,0,0,1.838,3.606h30.9A2.267,2.267,0,0,0,59.9,65.785Z" transform="translate(707.852 1900.999)" fill="#fff"/>
  </g>
</svg>
