<?xml version="1.0" encoding="utf-8"?>
<!-- Generator: Adobe Illustrator 24.2.0, SVG Export Plug-In . SVG Version: 6.00 Build 0)  -->
<svg version="1.1" id="Layer_1" xmlns="http://www.w3.org/2000/svg" xmlns:xlink="http://www.w3.org/1999/xlink" x="0px" y="0px"
	 viewBox="0 0 34 42.5" style="enable-background:new 0 0 34 42.5;" xml:space="preserve">
<style type="text/css">
	.st0{fill:#FFFFFF;}
</style>
<g>
	<path class="st0" d="M28,5.2H6c-2.8,0-5,2.2-5,5v22c0,2.8,2.2,5,5,5h22c2.8,0,5-2.2,5-5v-22C33,7.5,30.8,5.2,28,5.2z M6,7.2h22
		c1.7,0,3,1.3,3,3v3H3v-3C3,8.6,4.3,7.2,6,7.2z M28,35.2H6c-1.7,0-3-1.3-3-3v-17h28v17C31,33.9,29.7,35.2,28,35.2z"/>
	<path class="st0" d="M6.7,11c0.4-0.4,0.4-1,0-1.4c-0.4-0.4-1-0.4-1.4,0c-0.4,0.4-0.4,1,0,1.4C5.7,11.4,6.3,11.3,6.7,11z"/>
	<path class="st0" d="M10.7,11c0.4-0.4,0.4-1,0-1.4c-0.4-0.4-1-0.4-1.4,0c-0.4,0.4-0.4,1,0,1.4C9.7,11.4,10.3,11.3,10.7,11z"/>
	<path class="st0" d="M22.7,20.5c-0.4-0.4-1-0.4-1.4,0c-0.4,0.4-0.4,1,0,1.4l3.3,3.3l-3.3,3.3c-0.4,0.4-0.4,1,0,1.4
		c0.4,0.4,1,0.4,1.4,0l4-4c0.4-0.4,0.4-1,0-1.4L22.7,20.5z"/>
	<path class="st0" d="M12.7,20.5c-0.4-0.4-1-0.4-1.4,0l-4,4c-0.4,0.4-0.4,1,0,1.4l4,4c0.4,0.4,1,0.4,1.4,0c0.4-0.4,0.4-1,0-1.4
		l-3.3-3.3l3.3-3.3C13.1,21.6,13.1,20.9,12.7,20.5z"/>
	<path class="st0" d="M19.3,18.3c-0.5-0.2-1.1,0.1-1.3,0.6l-4,12c-0.2,0.5,0.1,1.1,0.6,1.3c0.5,0.2,1.1-0.1,1.3-0.6l4-12
		C20.1,19,19.8,18.5,19.3,18.3z"/>
	<path class="st0" d="M21,11.2h7c0.6,0,1-0.4,1-1s-0.4-1-1-1h-7c-0.6,0-1,0.4-1,1S20.4,11.2,21,11.2z"/>
</g>
</svg>
