<svg xmlns="http://www.w3.org/2000/svg" width="115" height="115" viewBox="0 0 115 115">
  <g id="Group_175" data-name="Group 175" transform="translate(-1126 -1902)">
    <circle id="Ellipse_3" data-name="Ellipse 3" cx="57.5" cy="57.5" r="57.5" transform="translate(1126 1902)" fill="#00b5ae"/>
    <g id="web-maintenance-icon" transform="translate(1151.894 1927.894)">
      <path id="Path_177" data-name="Path 177" d="M54.255,5.2H10.862A9.766,9.766,0,0,0,1,15.062V58.455a9.766,9.766,0,0,0,9.862,9.862H54.255a9.766,9.766,0,0,0,9.862-9.862V15.062A9.891,9.891,0,0,0,54.255,5.2ZM10.862,9.145H54.255a5.812,5.812,0,0,1,5.917,5.917v5.917H4.945V15.062A5.934,5.934,0,0,1,10.862,9.145ZM54.255,64.372H10.862a5.812,5.812,0,0,1-5.917-5.917V24.924H60.172V58.455A5.812,5.812,0,0,1,54.255,64.372Z" transform="translate(-1 -5.2)" fill="#fff"/>
      <path id="Path_178" data-name="Path 178" d="M8.353,12.653A1.953,1.953,0,0,0,5.592,9.892a1.907,1.907,0,0,0,0,2.761A2.1,2.1,0,0,0,8.353,12.653Z" transform="translate(2.89 -1.213)" fill="#fff"/>
      <path id="Path_179" data-name="Path 179" d="M12.353,12.653A1.953,1.953,0,1,0,9.592,9.892a1.907,1.907,0,0,0,0,2.761A2.1,2.1,0,0,0,12.353,12.653Z" transform="translate(6.779 -1.213)" fill="#fff"/>
      <path id="Path_180" data-name="Path 180" d="M24.353,20.792a1.953,1.953,0,1,0-2.761,2.761L28.1,30.062l-6.509,6.509a1.953,1.953,0,0,0,2.761,2.761l7.89-7.89a1.907,1.907,0,0,0,0-2.761Z" transform="translate(18.448 9.386)" fill="#fff"/>
      <path id="Path_181" data-name="Path 181" d="M18.243,20.792a1.907,1.907,0,0,0-2.761,0l-7.89,7.89a1.907,1.907,0,0,0,0,2.761l7.89,7.89a1.953,1.953,0,0,0,2.761-2.761l-6.509-6.509,6.509-6.509A1.9,1.9,0,0,0,18.243,20.792Z" transform="translate(4.834 9.386)" fill="#fff"/>
      <path id="Path_182" data-name="Path 182" d="M24.515,18.361a2.052,2.052,0,0,0-2.564,1.183l-7.89,23.669a2,2,0,0,0,3.748,1.381L25.7,20.925A1.974,1.974,0,0,0,24.515,18.361Z" transform="translate(11.58 7.477)" fill="#fff"/>
      <path id="Path_183" data-name="Path 183" d="M21.972,13.145H35.779a1.863,1.863,0,0,0,1.972-1.972A1.863,1.863,0,0,0,35.779,9.2H21.972A1.863,1.863,0,0,0,20,11.172,1.863,1.863,0,0,0,21.972,13.145Z" transform="translate(17.476 -1.31)" fill="#fff"/>
    </g>
  </g>
</svg>
