<svg xmlns="http://www.w3.org/2000/svg" width="115" height="115" viewBox="0 0 115 115">
  <g id="Group_173" data-name="Group 173" transform="translate(-260 -1902)">
    <circle id="Ellipse_1" data-name="Ellipse 1" cx="57.5" cy="57.5" r="57.5" transform="translate(260 1902)" fill="#00b5ae"/>
    <g id="Group_164" data-name="Group 164" transform="translate(286.031 1928.031)">
      <path id="Path_176" data-name="Path 176" d="M543.893-535.855a31.443,31.443,0,0,1-31.52,31.435,31.441,31.441,0,0,1-31.417-31.539,31.44,31.44,0,0,1,31.486-31.4A31.442,31.442,0,0,1,543.893-535.855Zm-38.762,17.6.144,0q3.087-9.244,6.164-18.49a1.183,1.183,0,0,0-.017-.721c-1.4-3.869-2.813-7.731-4.212-11.6a.664.664,0,0,0-.7-.488c-.862-.052-1.723-.141-2.581-.249a1.092,1.092,0,0,1-1.024-1.213,1.152,1.152,0,0,1,1.2-1.141c.432,0,.865.027,1.3.06a73.319,73.319,0,0,0,10.916.127c1.09-.078,2.181-.146,3.272-.185a1.11,1.11,0,0,1,1.234,1.084,1.139,1.139,0,0,1-.988,1.262c-.312.06-.631.091-.948.12-.784.07-1.568.131-2.453.2L526.889-518.4c1.447-4.56,2.875-8.946,4.224-13.355a16.579,16.579,0,0,0,.585-8.684,18.157,18.157,0,0,0-2.32-5.358,17.64,17.64,0,0,1-2.4-4.873,5.254,5.254,0,0,1,3.292-6.442,14.435,14.435,0,0,1,1.573-.306c-12.692-11.913-34.107-9.372-43.58,5.539.315.016.6.053.886.043,2.82-.1,5.639-.22,8.459-.327.853-.032,1.336.328,1.417,1.037s-.354,1.232-1.213,1.336c-1.031.125-2.068.2-3.179.307Zm7.8-15.086-8.7,25.278c4.49,1.784,13.889,1.527,17.762-.459ZM499.72-509.814l-13.8-37.817A28.913,28.913,0,0,0,499.72-509.814ZM538-549.528c.06,5.98-.163,7.647-1.506,11.509q-4.565,13.13-9.126,26.261c-.092.265-.166.536-.274.888A28.912,28.912,0,0,0,538-549.528Z" transform="translate(-480.956 567.359)" fill="#fff"/>
    </g>
  </g>
</svg>
